<?xml version="1.0" encoding="utf-8"?>
<svg width="200px" height="160px" viewBox="0 0 200 160" version="1.1" xmlns="http://www.w3.org/2000/svg" >

  <style>
    svg {
      fill-rule: evenodd;
      clip-rule: evenodd;
    }
    use {
      stroke-width: 2px;
    }
    .stroke {
      stroke-width: inherit;
      stroke-linecap: round;
      stroke-linejoin: round;
      stroke-miterlimit: 1.5;

      fill: transparent;
      stroke: currentColor;
      stroke-width: inherit;
    }
    .fill,
    .fill.stroke {
      fill: currentColor;
    }
  </style>


  <!-- //////// Main Menu //////// -->


  <symbol id="icon-home" viewBox="0 0 16 16">
    <path class="stroke" d="M12,6 l0,6 l-8,-0 l0,-6 l4,-4 l4,4Z"/>
  </symbol>

  <symbol id="icon-cross" viewBox="0 0 16 16">
    <path class="stroke" d="M4,4l8,8 M4,12l8,-8"/>
  </symbol>

  <symbol id="icon-arrow-left" viewBox="0 0 16 16">
    <path class="stroke" d="M6,4 l-4,4 l4,4 M14,8 l-12,0"/>
  </symbol>

  <symbol id="icon-arrow-right" viewBox="0 0 16 16">
    <path class="stroke" d="M10,4 l4,4 l-4,4 M2,8 l12,0"/>
  </symbol>

  <symbol id="icon-arrow-left-curved" viewBox="0 0 16 16">
    <path class="stroke" d="M6,4 l-4,4 l4,4"/>
    <path class="stroke" d="M14,12 l0,-1.372 c0,-0.697 -0.277,-1.366 -0.77,-1.859 c-0.493,-0.493 -1.161,-0.769 -1.858,-0.769c-3.53,-0 -9.365,-0 -9.365,-0"/>
  </symbol>

  <symbol id="icon-arrow-right-curved" viewBox="0 0 16 16">
    <path class="stroke" d="M10,4 l4,4 l-4,4"/>
    <path class="stroke" d="M2,12 l-0,-1c-0,-1.657 1.343,-3 3,-3c3.552,-0 8.993,-0 8.993,-0"/>
  </symbol>

  <symbol id="icon-arrow-left-double" viewBox="0 0 16 16">
    <path class="stroke" d="M7,4 l-4,4 l4,4 M12,4 l-4,4 l4,4"/>
  </symbol>

  <symbol id="icon-arrow-right-double" viewBox="0 0 16 16">
    <path class="stroke" d="M9,4 l4,4 l-4,4 M4,4 l4,4 l-4,4"/>
  </symbol>

  <symbol id="icon-arrow-left-step" viewBox="0 0 16 16">
    <!-- <path class="stroke" d="M9,4 l-4,4 l4,4"/> -->
    <!-- <path class="stroke" d="M15,8 l-10,0"/> -->
    <!-- <path class="stroke" d="M2,4 l-0,8"/> -->
    <path class="stroke" d="M9,12 l-4,-4 l4,-4"/>
    <path class="stroke" d="M15,8 l-8,0"/>
    <path class="stroke" d="M2,12 l-0,-8"/>
  </symbol>

  <symbol id="icon-arrow-right-step" viewBox="0 0 16 16">
    <path class="stroke" d="M7,12 l4,-4 l-4,-4"/>
    <path class="stroke" d="M10,8 l-8,0"/>
    <path class="stroke" d="M14,12 l0,-8"/>
  </symbol>

  <!-- <symbol id="icon-cog" viewBox="0 0 16 16"> -->
    <!-- <path class="stroke" d="M9.351,1.642l0.419,1.746c0.484,0.186 0.936,0.447 1.339,0.773l1.722,-0.51c0.61,0.677 1.07,1.474 1.351,2.341l-1.303,1.236c0.081,0.512 0.081,1.034 -0,1.546l1.303,1.236c-0.281,0.866 -0.742,1.664 -1.351,2.341l-1.722,-0.51c-0.403,0.326 -0.855,0.587 -1.339,0.773l-0.419,1.746c-0.891,0.189 -1.812,0.189 -2.703,-0l-0.419,-1.746c-0.484,-0.186 -0.936,-0.447 -1.339,-0.773l-1.722,0.51c-0.61,-0.677 -1.07,-1.474 -1.351,-2.341l1.303,-1.236c-0.081,-0.512 -0.081,-1.034 0,-1.546l-1.303,-1.236c0.281,-0.866 0.742,-1.664 1.351,-2.341l1.722,0.51c0.403,-0.326 0.855,-0.587 1.339,-0.773l0.419,-1.746c0.891,-0.189 1.812,-0.189 2.703,0Zm-1.351,5.058c0.717,0 1.3,0.583 1.3,1.3c0,0.717 -0.583,1.3 -1.3,1.3c-0.717,0 -1.3,-0.583 -1.3,-1.3c0,-0.717 0.583,-1.3 1.3,-1.3Z"/> -->
    <!-- <path class="stroke" d="M9.017,1.58l0.657,1.772c0.553,0.199 1.066,0.495 1.515,0.875l1.863,-0.317c0.429,0.53 0.772,1.124 1.017,1.761l-1.206,1.455c0.104,0.579 0.104,1.171 -0,1.75l1.206,1.455c-0.244,0.637 -0.588,1.231 -1.017,1.761l-1.863,-0.317c-0.449,0.379 -0.962,0.676 -1.515,0.875l-0.657,1.772c-0.674,0.107 -1.36,0.107 -2.034,0l-0.657,-1.772c-0.553,-0.199 -1.066,-0.495 -1.515,-0.875l-1.863,0.317c-0.429,-0.53 -0.772,-1.124 -1.017,-1.761l1.206,-1.455c-0.104,-0.579 -0.104,-1.171 0,-1.75l-1.206,-1.455c0.244,-0.637 0.588,-1.231 1.017,-1.761l1.863,0.317c0.449,-0.379 0.962,-0.676 1.515,-0.875l0.657,-1.772c0.674,-0.107 1.36,-0.107 2.034,0Zm-1.017,5.12c0.717,0 1.3,0.583 1.3,1.3c0,0.717 -0.583,1.3 -1.3,1.3c-0.717,0 -1.3,-0.583 -1.3,-1.3c0,-0.717 0.583,-1.3 1.3,-1.3Z"/> -->
    <!-- <circle class="fill" cx="8" cy="8" r="2"/> -->
  <!-- </symbol> -->
  <!-- <symbol id="icon-cog" viewBox="0 0 16 16"> -->
    <!-- <path class="stroke" d="M9.306,2.147l0.253,1.724c0.45,0.169 0.869,0.411 1.24,0.716l1.62,-0.643c0.596,0.649 1.042,1.421 1.306,2.262l-1.367,1.081c0.078,0.474 0.078,0.958 0,1.432l1.367,1.081c-0.264,0.841 -0.71,1.613 -1.306,2.262l-1.62,-0.643c-0.371,0.305 -0.79,0.547 -1.24,0.716l-0.253,1.724c-0.86,0.192 -1.752,0.192 -2.612,0l-0.253,-1.724c-0.45,-0.169 -0.869,-0.411 -1.24,-0.716l-1.62,0.643c-0.596,-0.649 -1.042,-1.421 -1.306,-2.262l1.367,-1.081c-0.078,-0.474 -0.078,-0.958 -0,-1.432l-1.367,-1.081c0.264,-0.841 0.71,-1.613 1.306,-2.262l1.62,0.643c0.371,-0.305 0.79,-0.547 1.24,-0.716l0.253,-1.724c0.86,-0.192 1.752,-0.192 2.612,-0Zm-1.306,4.056c0.993,-0 1.8,0.807 1.8,1.8c-0,0.993 -0.807,1.8 -1.8,1.8c-0.993,-0 -1.8,-0.807 -1.8,-1.8c0,-0.993 0.807,-1.8 1.8,-1.8Z"/> -->
    <!-- <circle class="fill" cx="8" cy="8" r="2"/> -->
    <!-- <path class="fill" d="M9.306,2.147l0.253,1.724c0.45,0.169 0.869,0.411 1.24,0.716l1.62,-0.643c0.596,0.649 1.042,1.421 1.306,2.262l-1.367,1.081c0.078,0.474 0.078,0.958 0,1.432l1.367,1.081c-0.264,0.841 -0.71,1.613 -1.306,2.262l-1.62,-0.643c-0.371,0.305 -0.79,0.547 -1.24,0.716l-0.253,1.724c-0.86,0.192 -1.752,0.192 -2.612,0l-0.253,-1.724c-0.45,-0.169 -0.869,-0.411 -1.24,-0.716l-1.62,0.643c-0.596,-0.649 -1.042,-1.421 -1.306,-2.262l1.367,-1.081c-0.078,-0.474 -0.078,-0.958 -0,-1.432l-1.367,-1.081c0.264,-0.841 0.71,-1.613 1.306,-2.262l1.62,0.643c0.371,-0.305 0.79,-0.547 1.24,-0.716l0.253,-1.724c0.86,-0.192 1.752,-0.192 2.612,-0Zm-1.306,4.056c0.993,-0 1.8,0.807 1.8,1.8c-0,0.993 -0.807,1.8 -1.8,1.8c-0.993,-0 -1.8,-0.807 -1.8,-1.8c0,-0.993 0.807,-1.8 1.8,-1.8Z"/> -->
  <!-- </symbol> -->
  <symbol id="icon-cog" viewBox="0 0 16 16">
    <path class="fill" d="M8.82,1.051l0.753,1.972c0.288,0.091 0.568,0.207 0.836,0.346l1.927,-0.862c0.43,0.34 0.82,0.73 1.16,1.16l-0.862,1.927c0.139,0.268 0.255,0.548 0.346,0.836l1.972,0.753c0.064,0.545 0.064,1.095 -0,1.64l-1.972,0.753c-0.091,0.288 -0.207,0.568 -0.346,0.836l0.862,1.927c-0.34,0.43 -0.73,0.82 -1.16,1.16l-1.927,-0.862c-0.268,0.139 -0.548,0.255 -0.836,0.346l-0.753,1.972c-0.545,0.064 -1.095,0.064 -1.64,-0l-0.753,-1.972c-0.288,-0.091 -0.568,-0.207 -0.836,-0.346l-1.927,0.862c-0.43,-0.34 -0.82,-0.73 -1.16,-1.16l0.862,-1.927c-0.139,-0.268 -0.255,-0.548 -0.346,-0.836l-1.972,-0.753c-0.064,-0.545 -0.064,-1.095 0,-1.64l1.972,-0.753c0.091,-0.288 0.207,-0.568 0.346,-0.836l-0.862,-1.927c0.34,-0.43 0.73,-0.82 1.16,-1.16l1.927,0.862c0.268,-0.139 0.548,-0.255 0.836,-0.346l0.753,-1.972c0.545,-0.064 1.095,-0.064 1.64,0Zm-0.82,3.942c1.661,-0 3.01,1.349 3.01,3.01c-0,1.661 -1.349,3.01 -3.01,3.01c-1.661,-0 -3.01,-1.349 -3.01,-3.01c0,-1.661 1.349,-3.01 3.01,-3.01Z"/>
  </symbol>

  <symbol id="icon-info" viewBox="0 0 16 16">
    <!-- <path class="fill" d="M8,1 c3.863,-0 7,3.137 7,7 c0,3.863 -3.137,7 -7,7 c-3.863,0 -7,-3.137 -7,-7 c0,-3.863 3.137,-7 7,-7 Z m1,2 l-2,0 l-0,2 l2,0 l-0,-2Zm0,3 l-3,0 l0,1 l1,0 l0,5 l-1,0 l0,1 l4,0 l0,-1 l-1,0 l0,-6 Z"/> -->
    <path class="fill" d=" M8,1 c3.863,-0 7,3.137 7,7 c0,3.863 -3.137,7 -7,7 c-3.863,0 -7,-3.137 -7,-7 c0,-3.863 3.137,-7 7,-7 Z m1,6 l-3,0 l0,1 l1,0 l0,3 l-1,0 l0,1 l4,0 l0,-1 l-1,0 l0,-4 Z m-0,-3 l-2,0 l-0,2 l2,-0 l-0,-2 Z"/>
  </symbol>

  <symbol id="icon-verify" viewBox="0 0 16 16">
    <path class="fill" d="M8,1 l7,2c-0,0 1,10 -7,12c-8,-2 -7,-12 -7,-12 l7,-2 Z m-4.5,7.5 l3,3 l6,-6 l-1.5,-1.5 l-4.5,4.5 l-1.5,-1.5 l-1.5,1.5 Z"/>
  </symbol>

  <symbol id="icon-lock" viewBox="0 0 16 16">
    <path class="stroke" d="M8,2.5c1.656,-0 3,1.344 3,3l-0,3l-6,-0l-0,-3c-0,-1.656 1.344,-3 3,-3Z"/>
    <path class="fill" d="M13,7l-0,7l-10,0l-0,-7l10,0Zm-4,2l-2,0l-0,3l2,0l-0,-3Z"/>
  </symbol>
  
  <symbol id="icon-note" viewBox="0 0 16 16">
    <path class="stroke" d="M9.5,13.5l-6,-0c-0.552,-0 -1,-0.448 -1,-1l-0,-10l11,-0l-0,7l-4,4Z"/>
    <path class="stroke" d="M9.5,13l0,-3.5l3.5,-0"/>
    <rect class="fill" x="2.5" y="2.5" width="11" height="2.5"/>
  </symbol>

  <symbol id="icon-lightbulb" viewBox="0 0 16 16">
    <path class="stroke" d="M6.5,11.5c0.004,-2.001 -2,-2.568 -2,-4.5c-0,-1.932 1.568,-3.5 3.5,-3.5c1.932,-0 3.5,1.568 3.5,3.5c0,1.932 -2,2.498 -2,4.5l-3,-0Z"/>
    <rect class="stroke" x="6.5" y="11.5" width="3" height="2"/>
    <g>
      <path class="stroke" d="M2.5,6.5l-1,-0 M14.5,6.5l-1,-0"/>
      <path class="stroke" d="M3.237,3.75l-0.866,-0.5 M13.629,9.75l-0.866,-0.5"/>
      <path class="stroke" d="M3.237,9.25l-0.866,0.5 M13.629,3.25l-0.866,0.5"/>
    </g>
  </symbol>

  <!--
  <symbol id="icon-installed-yes" viewBox="0 0 16 16">
    <path class="stroke" d="M12.5,3.5c0.552,0 1,0.448 1,1c-0,1.537 -0,4.463 -0,6c-0,0.552 -0.448,1 -1,1c-2.092,-0 -6.908,-0 -9,0c-0.552,-0 -1,-0.448 -1,-1c-0,-1.537 -0,-4.463 -0,-6c0,-0.552 0.448,-1 1,-1c2.092,0 6.908,-0 9,0Z"/>
    <path class="fill" d="M11,5c0.265,0 0.52,0.105 0.707,0.293c0.188,0.187 0.293,0.442 0.293,0.707l0,3c0,0.552 -0.448,1 -1,1l-6,0c-0.265,-0 -0.52,-0.105 -0.707,-0.293c-0.188,-0.187 -0.293,-0.442 -0.293,-0.707l-0,-3c-0,-0.552 0.448,-1 1,-1l6,0Z"/>
    <rect class="fill" x="5" y="12" width="6" height="2"/>
  </symbol>
  <symbol id="icon-installed-no-old1" viewBox="0 0 16 16">
    <path class="stroke" d="M8,6l2.5,2.5l2.5,-2.5"/>
    <path class="stroke" d="M13.5,9.5l-0,1c-0,0.552 -0.448,1 -1,1c-2.092,-0 -6.908,-0 -9,-0c-0.552,-0 -1,-0.448 -1,-1c-0,-1.537 -0,-4.463 -0,-6c0,-0.265 0.105,-0.52 0.293,-0.707c0.187,-0.188 0.442,-0.293 0.707,-0.293l4,-0"/>
    <path class="stroke" d="M10.5,1.5l-0,7"/>
    <rect class="fill" x="5" y="12" width="6" height="2"/>
  </symbol>
  -->

  <!-- <symbol id="icon-installed-yes-old2" viewBox="0 0 16 16">
    <path class="fill" d="M5,13l-2,-0c-0.53,-0 -1.039,-0.211 -1.414,-0.586c-0.375,-0.375 -0.586,-0.884 -0.586,-1.414l-0,-7c-0,-0.53 0.211,-1.039 0.586,-1.414c0.375,-0.375 0.884,-0.586 1.414,-0.586l10,-0c0.53,0 1.039,0.211 1.414,0.586c0.375,0.375 0.586,0.884 0.586,1.414l-0,7c0,0.53 -0.211,1.039 -0.586,1.414c-0.375,0.375 -0.884,0.586 -1.414,0.586l-2,0l-0,2l-6,0l-0,-2Zm-1.5,-4.5l3,3l6,-6l-1.5,-1.5l-4.5,4.5l-1.5,-1.5l-1.5,1.5Z"/>
  </symbol> -->

  <!-- <symbol id="icon-installed-no-old2" viewBox="0 0 16 16">
    <path class="stroke" d="M5.5,6.75l2.5,2.5l2.5,-2.5"/>
    <path class="stroke" d="M10.5,3.5l3,0c0.552,0 1,0.448 1,1c-0,1.732 -0,5.268 -0,7c0,0.265 -0.105,0.52 -0.293,0.707c-0.187,0.188 -0.442,0.293 -0.707,0.293c-2.422,0 -8.578,0 -11,0c-0.265,-0 -0.52,-0.105 -0.707,-0.293c-0.188,-0.187 -0.293,-0.442 -0.293,-0.707c-0,-1.732 -0,-5.268 -0,-7c-0,-0.552 0.448,-1 1,-1c1.185,-0 3,-0 3,-0"/>
    <path class="stroke" d="M8,1.75l0,7.5"/>
    <rect class="fill" x="5" y="13" width="6" height="2"/>
  </symbol> -->

  <symbol id="icon-installed-yes" viewBox="0 0 16 16">
    <rect class="fill" x="3" y="12" width="10" height="2"/>
    <path class="fill" d="M3.5,7.5l1.5,-1.5l1.5,1.5l4.5,-4.5l1.5,1.5l-6,6l-3,-3"/>
  </symbol>
  
  <symbol id="icon-installed-no" viewBox="0 0 16 16">
    <rect class="fill" x="3" y="12" width="10" height="2"/>
    <path class="stroke" d="M5,7.5l3,3l3,-3"/>
    <path class="stroke" d="M8,2l0,8"/>
  </symbol>

  <symbol id="icon-help" viewBox="0 0 16 16">
    <path d="M8,1c3.863,0 7,3.137 7,7c-0,3.863 -3.137,7 -7,7c-3.863,0 -7,-3.137 -7,-7c-0,-3.863 3.137,-7 7,-7Zm1,10l-2,-0l-0,2l2,-0l-0,-2Zm-2.5,-4.5c-0,-0.92 0.825,-1 1.5,-1c0.941,0 1.5,0.191 1.5,1c-0,1.119 -2.5,0.931 -2.5,3.5l2,0c-0,-1.077 2.5,-0.995 2.5,-3.497c-0,-2.434 -2.02,-3.003 -3.5,-3.003c-1.482,0 -3.5,0.631 -3.5,3l2,0Z"/>
  </symbol>

  <symbol id="icon-identity" viewBox="0 0 16 16">
    <!-- <circle class="fill" cx="8" cy="5" r="3"/> -->
    <!-- <path class="fill" d="M9.782,8.327c1.881,0.719 3.218,2.541 3.218,4.673l-0,1l-10,-0l-0,-1c-0,-2.132 1.337,-3.954 3.218,-4.673l1.782,2.673l1.782,-2.673Z"/> -->

    <!-- <circle class="fill" cx="8" cy="4.5" r="3.5"/> -->
    <!-- <path class="fill" d="M10.079,8.382c2.194,0.838 3.754,2.964 3.754,5.451l0,1.167l-11.666,-0l-0,-1.167c-0,-2.487 1.56,-4.613 3.754,-5.451l2.079,3.118l2.079,-3.118Z"/> -->

    <circle class="fill" cx="8" cy="4.5" r="3.5"/>
    <path class="fill" d="M10.739,8.683c1.841,0.981 3.094,2.921 3.094,5.15l0,1.167l-11.666,-0l-0,-1.167c-0,-2.229 1.253,-4.169 3.094,-5.15c0.787,0.516 1.728,0.817 2.739,0.817c1.011,-0 1.952,-0.301 2.739,-0.817Z"/>
  </symbol>


  <!-- //////// LMP Icons //////// -->

  <symbol id="icon-open-display" viewBox="0 0 24 24">
    <!-- <path class="stroke" d="M11,8 l-5,0 l0,10 l11,0 l0,-4"/>
    <path class="stroke" d="M12,13 l6,-6 M14,6 l5,0 l0,5"/> -->
    <!-- <path class="stroke" d="M11,8 l-5,0 l0,10 l13,0 l0,-3"/>
    <path class="stroke" d="M13,13 l6,-6 M15,6 l5,0 l0,5"/> -->
    <path class="stroke" d="M10,8 l-5,0 l0,10 l13,0 l0,-3"/>
    <path class="stroke" d="M12,13 l6,-6 m-4,-1 l5,0 l0,5"/>
  </symbol>

  <symbol id="icon-segues" viewBox="0 0 24 24">
    <path class="stroke" d="M4,6 l0,12 l16,0 l0,-12 l-16,0Z"/>
    <path class="stroke" d="M18.5,6.5 l-11,11"/>
    <path class="stroke" d="M15,9 l-11,0 M12,12 l-8,0 M9,15 l-5,0"/>
  </symbol>

  <symbol id="icon-resources" viewBox="0 0 24 24">
    <path class="stroke" d="M4,6l0,12 l9,0 l0,-8 l-4,-4 l-5,0 Z"/>
    <path class="stroke fill" d="M9,7 l3,3 l-3,0 l0,-3 Z"/>
    <path class="stroke" d="M19,18 l0,-10 l-2,-2 M16,18 l0,-9 l-3,-3"/>
  </symbol>


  <!-- //////// Media Controls //////// -->

  <symbol id="icon-play" viewBox="0 0 32 32">
    <path class="fill" d="M24.125,14.293c0.595,0.364 0.957,1.01 0.957,1.707c0,0.697 -0.362,1.343 -0.957,1.707c-3.297,2.015 -8.762,5.354 -12.164,7.433c-0.618,0.378 -1.391,0.392 -2.022,0.038c-0.631,-0.354 -1.021,-1.021 -1.021,-1.744c-0,-4.095 -0,-10.773 -0,-14.868c-0,-0.723 0.39,-1.39 1.021,-1.744c0.631,-0.354 1.404,-0.34 2.022,0.038c3.402,2.079 8.867,5.418 12.164,7.433Z"/>
  </symbol>

  <symbol id="icon-pause" viewBox="0 0 32 32">
    <path class="fill" d="M13,8c1.105,0 2,0.895 2,2c0,3.074 0,8.926 0,12c-0,1.105 -0.895,2 -2,2c-0.941,0 -2.059,0 -3,0c-1.105,-0 -2,-0.895 -2,-2c0,-3.074 0,-8.926 0,-12c0,-1.105 0.895,-2 2,-2c0.941,0 2.059,0 3,0Z"/>
    <path class="fill" d="M22,8c1.105,0 2,0.895 2,2c0,3.074 0,8.926 0,12c-0,1.105 -0.895,2 -2,2c-0.941,0 -2.059,0 -3,0c-1.105,-0 -2,-0.895 -2,-2c0,-3.074 0,-8.926 0,-12c0,-1.105 0.895,-2 2,-2c0.941,0 2.059,0 3,0Z"/>
  </symbol>

  <symbol id="icon-stop" viewBox="0 0 32 32">
    <path class="fill" d="M22,8c1.105,0 2,0.895 2,2l0,12c-0,1.105 -0.895,2 -2,2l-12,0c-1.105,-0 -2,-0.895 -2,-2l0,-12c0,-1.105 0.895,-2 2,-2l12,0Z"/>
  </symbol>

  <symbol id="icon-unmuted" viewBox="0 0 32 32">
    <path class="fill" d="M8.658,12c0.239,-0 0.47,-0.086 0.652,-0.242c0.834,-0.718 3.341,-2.876 5.038,-4.336c0.296,-0.255 0.714,-0.314 1.069,-0.151c0.355,0.163 0.583,0.518 0.583,0.909c-0,3.846 -0,11.794 -0,15.64c-0,0.391 -0.228,0.746 -0.583,0.909c-0.355,0.163 -0.773,0.104 -1.069,-0.151c-1.697,-1.46 -4.204,-3.618 -5.038,-4.336c-0.182,-0.156 -0.413,-0.242 -0.652,-0.242c-0.599,0 -1.796,0 -2.658,0c-0.552,0 -1,-0.448 -1,-1c-0,-1.537 -0,-4.463 -0,-6c0,-0.552 0.448,-1 1,-1c0.862,-0 2.059,-0 2.658,-0Z"/>
    <path class="fill" d="M19.362,13.172c0.75,0.75 1.171,1.767 1.171,2.828c-0,1.061 -0.422,2.078 -1.172,2.828c-0.481,0.482 -0.481,1.263 0,1.745c0.481,0.481 1.263,0.481 1.744,-0c1.213,-1.213 1.895,-2.858 1.895,-4.573c0,-1.715 -0.681,-3.359 -1.894,-4.572c-0.481,-0.482 -1.263,-0.482 -1.744,-0c-0.482,0.481 -0.482,1.263 -0,1.744Z"/>
    <path class="fill" d="M23.36,10.729c1.398,1.398 2.184,3.294 2.184,5.271c-0,1.977 -0.786,3.873 -2.184,5.271c-0.479,0.48 -0.479,1.258 0,1.737c0.48,0.48 1.258,0.48 1.737,0c1.859,-1.858 2.903,-4.379 2.903,-7.008c-0,-2.629 -1.044,-5.15 -2.903,-7.008c-0.479,-0.48 -1.257,-0.48 -1.737,-0c-0.479,0.479 -0.479,1.257 0,1.737Z"/>
  </symbol>

  <symbol id="icon-muted" viewBox="0 0 32 32">
    <path class="fill" d="M16,20.92l0,2.9c-0,0.391 -0.228,0.746 -0.583,0.909c-0.355,0.163 -0.773,0.104 -1.069,-0.151l-5.038,-4.336c-0.182,-0.156 -0.413,-0.242 -0.652,-0.242l-2.658,-0c-0.552,0 -1,-0.448 -1,-1l0,-6c0,-0.552 0.448,-1 1,-1l1.08,-0l8.92,8.92Zm-5.374,-10.294l3.722,-3.204c0.296,-0.255 0.714,-0.314 1.069,-0.151c0.355,0.163 0.583,0.518 0.583,0.909l0,7.82l-5.374,-5.374Z"/>
    <path class="fill" d="M6.529,8.151c-0.585,-0.586 -0.585,-1.536 0,-2.122c0.586,-0.585 1.536,-0.585 2.122,0l16.82,16.82c0.585,0.586 0.585,1.536 -0,2.122c-0.586,0.585 -1.536,0.585 -2.122,-0l-16.82,-16.82Z"/>
  </symbol>


  <!-- //////// Board Controls //////// -->

  <symbol id="icon-board-mode" viewBox="0 0 24 24">
    <path class="stroke" d="M20,10l0,8l-16,0l0,-12l8,0" />
    <path class="stroke fill" d="M18,6l-4,6.928l-1.433,1.482l0.567,-1.982l4,-6.928l0.866,0.5Z" />
  </symbol>

  <symbol id="icon-cross-24" viewBox="0 0 24 24">
    <path class="stroke" d="M7.757,7.757l8.486,8.486"/>
    <path class="stroke" d="M7.757,16.243l8.486,-8.486"/>
  </symbol>

  <symbol id="icon-board-mode-text" viewBox="0 0 24 24">
    <path class="stroke" d="M10,18 l4,0 M17,9 l0,-2 l-10,0 l0,2 M12,7 l0,11"></path>
  </symbol>

  <symbol id="icon-board-mode-pen" viewBox="0 0 24 24">
    <path class="stroke fill" d="M7.684,19.292l0.638,-5.347l3.674,2.121l-4.312,3.226Z"/>
    <path class="stroke" d="M8.322,13.945l5.657,-9.798l3.674,2.121l-5.657,9.798l-3.674,-2.121Z"/>
  </symbol>

  <symbol id="icon-page-turn" viewBox="0 0 24 24">
    <path class="stroke" d="M12.5,7l7.5,0l0,11l-16,0l0,-11l3,0"/>
    <path class="stroke" d="M20,18l-4.414,0c-1.231,0 -2.337,-0.752 -2.789,-1.897c-0.453,-1.145 -0.161,-2.45 0.738,-3.292c1.375,-1.289 2.465,-2.311 2.465,-2.311l-7.5,-7c0,0 -0,0 -0.001,0.001c-1.38,0.828 -1.829,2.618 -1.001,3.999c2.262,3.776 6.291,10.5 6.291,10.5"/>
  </symbol>


  <!-- //////// Board Text Controls //////// -->

  <symbol id="icon-board-text-bold" viewBox="0 0 24 24">
    <path class="stroke" d="M12,11.993l1.5,-0c1.381,0 2.5,1.119 2.5,2.5c-0,1.381 -1.119,2.5 -2.5,2.5c-2.347,-0 -5.5,-0 -5.5,-0l0,-10l5,-0c1.381,0 2.5,1.119 2.5,2.5c-0,0.663 -0.263,1.299 -0.732,1.768c-0.469,0.469 -1.105,0.732 -1.768,0.732l-1,-0Z"/>
    <path class="fill" d="M13,11.993l0.5,-0c1.381,0 2.5,1.119 2.5,2.5c-0,1.381 -1.119,2.5 -2.5,2.5l-5.5,-0l0,-10l5,-0c1.381,0 2.5,1.119 2.5,2.5c-0,0.663 -0.263,1.299 -0.732,1.768c-0.469,0.469 -1.105,0.732 -1.768,0.732Zm-3,-0.993l2.252,0c0.689,0 1.248,-0.559 1.248,-1.248l0,-0.002c0,-0.332 -0.132,-0.649 -0.366,-0.884c-0.235,-0.234 -0.552,-0.366 -0.884,-0.366l-2.25,-0l0,2.5Zm0,2l0,2.5l2.75,-0c0.332,0 0.649,-0.132 0.884,-0.366c0.234,-0.235 0.366,-0.552 0.366,-0.884c0,-0.332 -0.132,-0.649 -0.366,-0.884c-0.235,-0.234 -0.552,-0.366 -0.884,-0.366l-2.75,-0Z"/>
  </symbol>

  <symbol id="icon-board-text-italic" viewBox="0 0 24 24">
    <path class="stroke" d="M12,6.993l4,0 M8,16.993l4,0 M14,6.993l-4,10"/>
  </symbol>

  <symbol id="icon-board-text-underline" viewBox="0 0 24 24">
    <path class="stroke" d="M8,6.993 l0,5c-0,1.061 0.421,2.078 1.172,2.828 c0.75,0.751 1.767,1.172 2.828,1.172 l0,-0c2.209,-0 4,-1.791 4,-4 l0,-5"/>
    <path class="stroke" d="M8,18.993l8,-0"/>
  </symbol>

  <symbol id="icon-board-text-strike" viewBox="0 0 24 24">
    <path class="stroke" d="M6,12l12,-0"/>
    <path class="stroke" d="M14.686,8.379c0,-0 -0.844,-1.18 -2.913,-1.18c-1.598,-0 -2.558,0.575 -3.025,1.808"/>
    <path class="stroke" d="M11.907,12c1.756,0.584 3.417,1 3.417,3.092c-0,1.374 -1.713,2.347 -3.087,2.347c-1.374,0 -2.436,-0.421 -3.528,-1.661"/>
  </symbol>

  <symbol id="icon-board-text-unformat" viewBox="0 0 24 24">
    <path class="fill stroke" d="M12.33,12.16c0,0 3.235,-5.603 4.501,-7.796c0.132,-0.229 0.35,-0.397 0.606,-0.465c0.256,-0.069 0.528,-0.033 0.758,0.1c0.001,0.001 0.002,0.001 0.003,0.002c0.229,0.132 0.397,0.35 0.465,0.606c0.069,0.256 0.033,0.528 -0.1,0.758c-1.266,2.192 -4.501,7.796 -4.501,7.796"></path>
    <path class="stroke" d="M8.214,13.248c-1,1.732 -1.489,2.032 -3.714,2.475c0,0 0.72,1.598 2.964,2.866"></path>
    <path class="stroke" d="M10.33,15.624c-0.5,0.866 -1.31,2.309 -2.866,2.964c3.464,2 5.922,1.7 7.678,-1.341"></path>
    <path class="stroke" d="M16.642,14.65l-1.5,2.598l-6.91,-3.99l1.5,-2.598l6.91,3.99Z"></path>
  </symbol>

  <symbol id="icon-board-clear-text" viewBox="0 0 24 24">
    <path class="stroke" d="M10,18l4,0 M17,8l0,-2l-7,0 M12,6l0,2 M12,12l0,6"/>
    <path class="stroke" d="M6,6l12,12"/>
  </symbol>

  <symbol id="icon-board-clear-pen" viewBox="0 0 24 24">
    <path class="stroke" d="M6,6l12,12"/>
    <path class="stroke" d="M11.754,8l2.224,-3.853l3.674,2.121l-2.732,4.732"/>
    <path class="fill stroke" d="M7.684,19.292l0.638,-5.347l3.674,2.121l-4.312,3.226Z"/>
    <path class="stroke" d="M13.485,13.487l-1.489,2.579l-3.674,-2.121l2.062,-3.571"/>
  </symbol>


  <!-- just previews for viewing this file (as <symbol>s dont render) -->
  <g id="previews">
    <use href="#icon-play"                   width="32" height="32" x="0"   y="0"/>
    <use href="#icon-pause"                  width="32" height="32" x="32"  y="0"/>
    <use href="#icon-stop"                   width="32" height="32" x="64"  y="0"/>
    <use href="#icon-unmuted"                width="32" height="32" x="96"  y="0"/>
    <use href="#icon-muted"                  width="32" height="32" x="128" y="0"/>

    <use href="#icon-home"                   width="16" height="16" x="8"   y="32"/>
    <use href="#icon-cross"                  width="16" height="16" x="40"  y="32"/>
    <use href="#icon-arrow-left"             width="16" height="16" x="72"  y="32"/>
    <use href="#icon-arrow-right"            width="16" height="16" x="104" y="32"/>
    <use href="#icon-arrow-left-curved"      width="16" height="16" x="136" y="32"/>
    <use href="#icon-arrow-right-curved"     width="16" height="16" x="168" y="32"/>

    <use href="#icon-arrow-left-double"      width="16" height="16" x="8"   y="54"/>
    <use href="#icon-arrow-right-double"     width="16" height="16" x="40"  y="54"/>
    <use href="#icon-arrow-left-step"        width="16" height="16" x="72"  y="54"/>
    <use href="#icon-arrow-right-step"       width="16" height="16" x="104" y="54"/>
    <use href="#icon-cog"                    width="16" height="16" x="136" y="54"/>

    <use href="#icon-open-display"           width="24" height="24" x="4"   y="74"/>
    <use href="#icon-segues"                 width="24" height="24" x="36"  y="74"/>
    <use href="#icon-resources"              width="24" height="24" x="68"  y="74"/>
    <use href="#icon-board-mode"             width="24" height="24" x="100" y="74"/>
    <use href="#icon-page-turn"              width="24" height="24" x="132" y="74"/>

    <use href="#icon-board-mode-text"        width="24" height="24" x="4"   y="102"/>
    <use href="#icon-board-mode-pen"         width="24" height="24" x="36"  y="102"/>
    <use href="#icon-board-clear-text"       width="24" height="24" x="68"  y="102"/>
    <use href="#icon-board-clear-pen"        width="24" height="24" x="100" y="102"/>
    <use href="#icon-cross-24"               width="24" height="24" x="132" y="102"/>

    <use href="#icon-board-text-bold"        width="24" height="24" x="4"   y="128"/>
    <use href="#icon-board-text-italic"      width="24" height="24" x="36"  y="128"/>
    <use href="#icon-board-text-underline"   width="24" height="24" x="68"  y="128"/>
    <use href="#icon-board-text-strike"      width="24" height="24" x="100" y="128"/>
    <use href="#icon-board-text-unformat"    width="24" height="24" x="132" y="128"/>
  </g>

  <!-- Those previews can be used by CSS `background-image` if we use a <view> -->
  <view id="resources-view" viewBox="68 72 24 24" />

</svg>
